<?xml version="1.0" encoding="utf-8"?>
<svg version="1.1" xmlns="http://www.w3.org/2000/svg" xmlns:xlink="http://www.w3.org/1999/xlink" x="0px" y="0px" viewBox="0 0 750 500" style="enable-background:new 0 0 750 500;" xml:space="preserve">
<style type="text/css">.st0{fill:'#212529';}</style>
<g id="Layer_1">
<path class="st0" d="M 20,168 V 44 C 20,30.7 30.7,20 44,20 h 124 c 6.6,0 12,5.4 12,12 v 8 c 0,6.6 -5.40149,11.859606 -12,12 H 52 v 116 c 0,6.6 -5.4,12 -12,12 h -8 c -6.6,0 -12,-5.4 -12,-12 z M 566,32 v 8 c 0,6.6 5.40149,11.859606 12,12 h 116 v 116 c 0,6.6 5.4,12 12,12 h 8 c 6.6,0 12,-5.4 12,-12 V 44 C 726,30.7 715.3,20 702,20 H 578 c -6.6,0 -12,5.4 -12,12 z m 148,286 h -8 c -6.6,0 -11.88622,5.40098 -12,12 V 446 H 578 c -6.6,0 -12,5.4 -12,12 v 8 c 0,6.6 5.4,12 12,12 h 124 c 13.3,0 24,-10.7 24,-24 V 330 c 0,-6.6 -5.4,-12 -12,-12 z M 180,466 v -8 c 0,-6.6 -5.40149,-11.85961 -12,-12 H 52 V 330 c 0,-6.6 -5.4,-12 -12,-12 h -8 c -6.6,0 -12,5.4 -12,12 v 124 c 0,13.3 10.7,24 24,24 h 124 c 6.6,0 12,-5.4 12,-12 z"/>
</g>
</svg> 
