<?xml version="1.0" encoding="UTF-8" standalone="no"?>
<svg
   xmlns:dc="http://purl.org/dc/elements/1.1/"
   xmlns:cc="http://creativecommons.org/ns#"
   xmlns:rdf="http://www.w3.org/1999/02/22-rdf-syntax-ns#"
   xmlns:svg="http://www.w3.org/2000/svg"
   xmlns="http://www.w3.org/2000/svg"
   xmlns:sodipodi="http://sodipodi.sourceforge.net/DTD/sodipodi-0.dtd"
   xmlns:inkscape="http://www.inkscape.org/namespaces/inkscape"
   version="1.1"
   x="0px"
   y="0px"
   viewBox="0 0 750 500"
   style="enable-background:new 0 0 750 500;"
   xml:space="preserve"
   id="svg7"
   sodipodi:docname="doc_fit.svg"
   inkscape:version="0.92.5 (2060ec1f9f, 2020-04-08)"><metadata
   id="metadata13"><rdf:RDF><cc:Work
       rdf:about=""><dc:format>image/svg+xml</dc:format><dc:type
         rdf:resource="http://purl.org/dc/dcmitype/StillImage" /><dc:title></dc:title></cc:Work></rdf:RDF></metadata><defs
   id="defs11" /><sodipodi:namedview
   pagecolor="#ffffff"
   bordercolor="#666666"
   borderopacity="1"
   objecttolerance="10"
   gridtolerance="10"
   guidetolerance="10"
   inkscape:pageopacity="0"
   inkscape:pageshadow="2"
   inkscape:window-width="1848"
   inkscape:window-height="1039"
   id="namedview9"
   showgrid="false"
   inkscape:zoom="1.28"
   inkscape:cx="400.71258"
   inkscape:cy="254.97611"
   inkscape:window-x="72"
   inkscape:window-y="0"
   inkscape:window-maximized="1"
   inkscape:current-layer="svg7" />
<style
   type="text/css"
   id="style2">.st0{fill:'#212529';}</style>
<g
   id="Layer_1">
<path
   class="st0"
   d="M 20,172 V 44 C 20,30.7 30.7,20 44,20 h 128 c 6.6,0 8,1.4 8,8 v 8 c 0,6.6 -1.40149,7.859606 -8,8 H 44 v 128 c 0,6.6 -1.4,8 -8,8 h -8 c -6.6,0 -8,-1.4 -8,-8 z M 566,28 v 8 c 0,6.6 1.40149,7.859606 8,8 h 128 v 128 c 0,6.6 1.4,8 8,8 h 8 c 6.6,0 8,-1.4 8,-8 V 44 C 726,30.7 715.3,20 702,20 H 574 c -6.6,0 -8,1.4 -8,8 z m 152,290 h -8 c -6.6,0 -7.88622,1.40098 -8,8 V 454 H 574 c -6.6,0 -8,1.4 -8,8 v 8 c 0,6.6 1.4,8 8,8 h 128 c 13.3,0 24,-10.7 24,-24 V 326 c 0,-6.6 -1.4,-8 -8,-8 z M 180,470 v -8 c 0,-6.6 -1.40149,-7.85961 -8,-8 H 44 V 326 c 0,-6.6 -1.4,-8 -8,-8 h -8 c -6.6,0 -8,1.4 -8,8 v 128 c 0,13.3 10.7,24 24,24 h 128 c 6.6,0 8,-1.4 8,-8 z"
   id="path4"
   inkscape:connector-curvature="0"
   sodipodi:nodetypes="ssssssccssssssccssssssssssccssssssssssccssssssss" />
</g>
</svg>