<svg width="79" height="20" viewBox="0 0 79 20" fill="none" xmlns="http://www.w3.org/2000/svg">
<g clip-path="url(#clip0)">
<path d="M17.1675 9.62609C17.1675 4.34348 20.8544 0 26.8457 0C32.9522 0 36.6391 4.34348 36.6391 9.62609C36.6391 14.9087 32.9522 19.2522 26.8457 19.2522C20.8544 19.3696 17.1675 14.9087 17.1675 9.62609ZM32.1457 9.62609C32.1457 6.45653 29.8413 4.22609 26.9609 4.22609C24.0805 4.22609 21.7762 6.33914 21.7762 9.62609C21.7762 12.9131 24.0805 15.0261 26.9609 15.0261C29.8413 15.0261 32.1457 12.7957 32.1457 9.62609Z" fill="white"/>
<path d="M56.1043 19.0309H55.0674L43.3153 8.81782V19.0309H38.937V0.483032H39.974L51.7261 10.3439V0.600424H56.1043V19.0309Z" fill="white"/>
<path d="M67.7476 0.352234H68.4389L78.0019 18.9001H73.0475L72.0106 16.6696H64.0606L63.1389 18.9001H58.1846L67.7476 0.352234ZM68.2084 8.21746H67.978L65.6737 13.0305L65.4432 13.5001H70.7432L70.5128 13.0305L68.2084 8.21746Z" fill="white"/>
<path d="M4.37824 6.10441V0.352234H0V10.5653L4.37824 6.10441Z" fill="white"/>
<path d="M17.1673 0.352234H11.7521L7.37388 5.04789L6.56736 5.98702L4.37824 8.33485L0 13.0305V18.9001H4.37824V14.5566L7.14345 11.6218C8.75648 14.087 10.2543 16.5522 11.8673 18.9001H17.1673V18.4305L10.1391 8.33485L17.1673 0.821799V0.352234Z" fill="white"/>
</g>
<defs>
<clipPath id="clip0">
<rect width="78.0018" height="19.3696" fill="white"/>
</clipPath>
</defs>
</svg>
